HIERARCHY
ROOT Hips
{
  OFFSET -134.259 10.5245 112.805
  CHANNELS 6 Xposition Yposition Zposition Zrotation Xrotation Yrotation
  JOINT ToSpine
  {
    OFFSET -2.69724 7.43032 -0.144315
    CHANNELS 3 Zrotation Xrotation Yrotation
    JOINT Spine
    {
      OFFSET -0.0310711 10.7595 1.96963
      CHANNELS 3 Zrotation Xrotation Yrotation
      JOINT Spine1
      {
        OFFSET 19.9056 3.91189 0.764692
        CHANNELS 3 Zrotation Xrotation Yrotation
        JOINT Neck
        {
          OFFSET 25.9749 7.03908 -0.130764
          CHANNELS 3 Zrotation Xrotation Yrotation
          JOINT Head
          {
            OFFSET 9.52751 0.295786 -0.907742
            CHANNELS 3 Zrotation Xrotation Yrotation
            End Site
            {
              OFFSET 16.4037 0.713936 2.7358
            }
          }
        }
        JOINT LeftShoulder
        {
          OFFSET 17.7449 4.33886 11.7777
          CHANNELS 3 Zrotation Xrotation Yrotation
          JOINT LeftArm
          {
            OFFSET 0.911315 1.27913 9.80584
            CHANNELS 3 Zrotation Xrotation Yrotation
            JOINT LeftForeArm
            {
              OFFSET 28.6126 1.18197 -3.53199
              CHANNELS 3 Zrotation Xrotation Yrotation
              JOINT LeftHand
              {
                OFFSET 27.5088 0.0218783 0.327423
                CHANNELS 3 Zrotation Xrotation Yrotation
                End Site
                {
                  OFFSET 18.6038 -0.000155887 0.382096
                }
              }
            }
          }
        }
        JOINT RightShoulder
        {
          OFFSET 17.1009 2.89543 -12.2328
          CHANNELS 3 Zrotation Xrotation Yrotation
          JOINT RightArm
          {
            OFFSET 1.4228 0.178766 -10.211
            CHANNELS 3 Zrotation Xrotation Yrotation
            JOINT RightForeArm
            {
              OFFSET 28.733 1.87905 2.64907
              CHANNELS 3 Zrotation Xrotation Yrotation
              JOINT RightHand
              {
                OFFSET 27.4588 0.290562 -0.101845
                CHANNELS 3 Zrotation Xrotation Yrotation
                End Site
                {
                  OFFSET 17.8396 -0.255518 -0.000602873
                }
              }
            }
          }
        }
      }
    }
  }
  JOINT LeftUpLeg
  {
    OFFSET -5.61296 -2.22332 -10.2353
    CHANNELS 3 Zrotation Xrotation Yrotation
    JOINT LeftLeg
    {
      OFFSET 2.56703 -44.7417 -7.93097
      CHANNELS 3 Zrotation Xrotation Yrotation
      JOINT LeftFoot
      {
        OFFSET 3.16933 -46.5642 -3.96578
        CHANNELS 3 Zrotation Xrotation Yrotation
        JOINT LeftToeBase
        {
          OFFSET 0.346054 -6.02161 12.8035
          CHANNELS 3 Zrotation Xrotation Yrotation
          End Site
          {
            OFFSET 0.134235 -1.35082 5.13018
          }
        }
      }
    }
  }
  JOINT RightUpLeg
  {
    OFFSET -5.7928 -1.72406 10.6446
    CHANNELS 3 Zrotation Xrotation Yrotation
    JOINT RightLeg
    {
      OFFSET -2.57161 -44.7178 -7.85259
      CHANNELS 3 Zrotation Xrotation Yrotation
      JOINT RightFoot
      {
        OFFSET -3.10148 -46.5936 -4.03391
        CHANNELS 3 Zrotation Xrotation Yrotation
        JOINT RightToeBase
        {
          OFFSET -0.0828122 -6.13587 12.8035
          CHANNELS 3 Zrotation Xrotation Yrotation
          End Site
          {
            OFFSET -0.131328 -1.35082 5.13018
          }
        }
      }
    }
  }
}
MOTION
Frames:	17
Frame Time:	0.0333333
-134.349 10.5925 112.773 12.2569 16.0587 -91.284 -70.1915 0 88.8779 87.8299 68.8249 -2.21752 -11.4947 17.0832 6.78737 -156.387 26.7246 -169.966 -179.269 65.3533 -129.15 1.01249 -9.81315 -17.2872 -146.371 0.438277 -131.398 12.6986 0.25901 -90.3553 -2.31093 0.111436 -4.08622 -1.0832 -9.25271 -6.47911 -144.366 -9.25865 122.106 12.1859 -0.506047 92.4662 13.4536 -0.473458 -4.57496 -50.3028 5.95397 88.0892 -1.54567 33.9681 -3.41538 0.994959 -10.1697 -0.882928 -39.4597 -48.1999 -36.6362 -56.9728 -11.9913 81.6111 1.56778 34.6679 12.5327 -6.00725 -11.2553 1.11576 -6.61735 -43.0964 7.08575 
-134.36 10.5925 112.767 12.2629 16.0628 -91.2884 -70.1915 0 88.8779 87.7908 68.8157 -2.20918 -11.479 17.0642 6.80038 -156.309 26.7315 -170.166 -179.491 65.3062 -128.534 1.01343 -9.79822 -17.234 -146.689 0.610557 -131.414 13.1655 0.0604489 -90.2464 -3.44922 0.181054 -4.61568 -1.07801 -9.21087 -6.49564 -144.396 -9.19788 122.095 12.2288 -0.492454 92.5439 13.3144 -0.48708 -4.74295 -50.291 5.96069 88.0777 -1.54521 33.9997 -3.38624 0.860211 -10.3768 -0.893027 -38.7431 -47.8917 -35.9557 -56.9426 -11.9779 81.6658 1.58677 34.7038 12.3878 -5.94392 -11.3762 1.11669 -6.49708 -42.9837 7.4578 
-134.373 10.5925 112.772 12.2951 16.0739 -91.3018 -70.1915 0 88.8779 87.6582 68.7988 -2.14376 -11.4515 17.0334 6.82072 -156.81 26.5781 -170.377 179.002 64.9482 -126.976 1.01381 -9.79082 -17.167 -147.297 0.972057 -131.46 15.6557 0.469596 -89.4836 -4.36686 0.245424 -4.92148 -1.07593 -9.10952 -6.67651 -144.38 -9.13868 121.792 12.1936 -0.480633 92.6335 13.4312 -0.503987 -4.85364 -50.2846 5.90837 88.084 -1.62298 34.0853 -4.12748 0.43366 -10.7653 -0.907087 -37.7101 -49.0033 -32.301 -56.9746 -12.0094 81.5671 1.58845 34.6317 12.4949 -6.06428 -11.2782 1.11748 -6.62094 -43.2246 7.14321 
-134.351 10.5925 112.766 12.2796 16.0738 -91.2829 -70.1915 0 88.8779 87.7367 68.7884 -2.1658 -11.4833 17.0316 6.81052 -156.72 26.6091 -170.151 179.126 64.9888 -127.082 1.01619 -9.75623 -17.1673 -147.23 0.947315 -131.447 16.4953 0.369615 -89.5393 -4.9031 0.348321 -6.76837 -1.07492 -9.01424 -6.86387 -144.386 -9.17965 121.557 12.1704 -0.47877 92.6542 13.4443 -0.50185 -4.82991 -50.2661 5.99305 88.1455 -1.55868 34.0108 -3.52171 0.909508 -10.5096 -0.902805 -37.9961 -47.8071 -34.7953 -56.9513 -11.9544 81.668 1.5642 34.6635 12.3987 -5.97686 -11.2594 1.11509 -6.61828 -43.2829 7.1837 
-134.367 10.5925 112.782 12.2982 16.0555 -91.2946 -70.1915 0 88.8779 87.9288 68.7965 -2.35174 -11.5619 17.0533 6.76521 -156.593 26.6442 -170.211 179.495 65.0802 -127.614 1.01476 -9.77391 -17.0774 -147.185 1.01879 -131.374 16.9848 0.368032 -89.5544 -4.89993 0.382268 -7.5998 -1.07986 -8.98722 -6.98779 -144.406 -9.23705 121.439 12.1421 -0.477758 92.6718 13.398 -0.503631 -4.86202 -50.3403 5.88862 88.0655 -1.6436 34.0697 -4.34268 0.307824 -10.7363 -0.901432 -36.61 -49.3226 -29.8415 -57.0037 -11.9973 81.5771 1.58609 34.6111 12.4078 -6.02389 -11.3264 1.1175 -6.5241 -43.0929 7.419 
-134.346 10.5925 112.78 12.3 16.0546 -91.3033 -70.1915 0 88.8779 87.8582 68.761 -2.21784 -11.5088 17.067 6.64948 -156.498 26.6041 -170.562 179.272 64.9814 -127.088 1.00956 -9.84721 -16.8766 -147.202 0.97961 -131.144 16.8953 0.329036 -89.6869 -4.90005 0.374743 -7.40848 -1.06239 -8.84198 -7.06513 -144.406 -9.13591 121.203 12.0643 -0.467124 92.7701 13.4816 -0.512392 -4.91067 -50.3273 5.91275 88.1613 -1.65228 34.1104 -4.43195 0.373748 -10.7296 -0.902805 -36.3063 -49.2674 -29.3957 -57.0199 -12.0103 81.5792 1.57116 34.608 12.4556 -6.02659 -11.3058 1.11716 -6.56208 -43.0165 7.24148 
-134.349 10.593 112.783 12.3308 16.0671 -91.2868 -70.1915 0 88.8779 87.8866 68.7677 -2.29732 -11.5667 17.0265 6.77239 -156.324 26.5773 -170.964 179.843 65.0406 -127.694 1.00936 -9.85542 -17.1356 -147.19 0.826729 -131.376 16.8535 0.334404 -89.6727 -4.89073 0.372483 -7.36478 -1.07095 -8.83269 -7.20443 -144.412 -9.21889 121.082 12.0728 -0.462734 92.7975 13.4441 -0.511042 -4.90669 -50.3005 5.90881 88.0914 -1.63881 34.0988 -4.35485 0.426879 -10.8253 -0.910955 -36.1773 -49.0715 -29.4794 -57.0119 -12.0581 81.4076 1.58386 34.6264 12.563 -6.03305 -11.2472 1.11617 -6.57923 -43.0895 7.21937 
-134.34 10.5924 112.791 12.3385 16.1346 -91.3333 -70.1915 0 88.8779 87.5942 68.7631 -2.04153 -11.5487 17.0244 6.76096 -156.548 26.6351 -170.899 179.432 65.0631 -127.621 1.01637 -9.74695 -16.974 -147.135 0.996406 -131.292 16.89 0.334548 -89.6753 -4.88295 0.370862 -7.35063 -1.05475 -8.77966 -7.08569 -144.401 -9.09664 121.172 12.0364 -0.469137 92.768 13.4683 -0.510958 -4.90224 -50.2537 5.85075 88.1013 -1.65252 34.088 -4.42551 0.3836 -10.7519 -0.904651 -35.8588 -49.2231 -28.6633 -56.918 -12.07 81.5277 1.59093 34.652 12.4383 -6.0184 -11.236 1.11561 -6.58035 -43.0992 7.22052 
-134.322 10.5851 112.791 12.3214 16.1275 -91.2933 -70.1915 0 88.8779 87.7083 68.7507 -2.09665 -11.5929 17.006 6.78439 -156.174 26.6971 -170.802 179.232 65.0326 -127.101 1.01412 -9.78471 -17.1156 -147.143 0.841977 -131.355 16.8401 0.318863 -89.7306 -4.89889 0.36968 -7.27746 -1.04579 -8.68349 -7.14345 -144.359 -9.01611 121.03 11.9971 -0.45971 92.8462 13.5323 -0.511088 -4.91512 -50.2554 5.86104 88.0382 -1.64179 34.1021 -4.31718 0.435501 -10.8074 -0.909938 -35.8948 -49.1152 -28.9006 -56.9355 -12.0746 81.4308 1.58588 34.655 12.5111 -5.97549 -11.2323 1.11452 -6.53299 -43.0106 7.34306 
-134.316 10.58 112.801 12.3032 16.1356 -91.2983 -70.1915 0 88.8779 87.5946 68.7495 -1.95409 -11.5362 17.0234 6.73831 -156.264 26.6999 -170.824 179.185 65.0428 -127.201 1.01665 -9.74422 -17.0122 -147.137 0.919027 -131.261 16.8668 0.319145 -89.7425 -4.88388 0.368835 -7.28151 -1.03993 -8.67365 -7.13059 -144.372 -9.0735 121.043 12.0478 -0.468381 92.7675 13.5097 -0.511649 -4.83714 -50.2886 5.86874 88.0771 -1.63799 34.0419 -4.30992 0.44612 -10.6955 -0.902361 -35.8886 -49.1199 -28.8821 -56.9469 -12.0759 81.4233 1.56922 34.6007 12.5333 -5.91756 -11.2216 1.11293 -6.51347 -43.0499 7.43424 
-134.309 10.566 112.784 12.3233 16.1132 -91.2966 -70.1915 0 88.8779 87.6696 68.7373 -2.02261 -11.5544 17.0156 6.72853 -156.285 26.6866 -171.072 -179.923 65.1932 -128.005 1.01439 -9.77624 -16.8563 -147.132 1.02334 -131.07 16.903 0.30175 -89.8076 -4.92828 0.367701 -7.25748 -1.03617 -8.6521 -7.1222 -144.361 -9.03022 121.059 11.9852 -0.463644 92.8227 13.5211 -0.512288 -4.91451 -50.3058 5.85611 88.061 -1.64489 34.0814 -4.36001 0.409874 -10.6936 -0.901226 -35.8575 -49.3039 -28.5334 -57.0056 -12.0906 81.3935 1.57064 34.5956 12.6805 -6.11561 -11.2194 1.1176 -6.62669 -43.0034 7.00205 
-134.295 10.5632 112.782 12.2983 16.1106 -91.3357 -70.1915 0 88.8779 87.8275 68.7622 -2.20799 -11.6867 17.0222 6.78034 -156.344 26.8727 -169.94 177.86 64.9545 -125.399 1.00865 -9.87047 -17.3639 -147.163 0.58851 -131.532 16.8062 0.332388 -89.675 -4.91834 0.366952 -7.25509 -1.04055 -8.60423 -7.29294 -144.318 -9.11341 120.908 12.0002 -0.461353 92.8331 13.5057 -0.513237 -4.9065 -50.3166 5.81417 88.0642 -1.62607 34.0489 -4.18595 0.513892 -10.8327 -0.913741 -36.0574 -49.0098 -29.3622 -56.9767 -12.1479 81.4169 1.58318 34.6362 12.6644 -6.03086 -11.2505 1.11618 -6.58408 -43.002 7.1546 
-134.3 10.575 112.793 12.2749 16.0868 -91.3175 -70.1915 0 88.8779 87.9585 68.7789 -2.22725 -11.6406 17.1026 6.62976 -156.211 26.8531 -170.245 178.949 65.1357 -126.725 1.01895 -9.70901 -16.9995 -147.081 1.03207 -131.363 16.9371 0.336956 -89.6646 -4.92097 0.366164 -7.28039 -1.05803 -8.74681 -7.21332 -144.357 -9.20601 120.974 12.0092 -0.460603 92.8347 13.4666 -0.514409 -4.88478 -50.3597 5.83006 88.0716 -1.63517 34.0244 -4.29102 0.449448 -10.8598 -0.913953 -35.9381 -49.1842 -28.8685 -56.9866 -12.107 81.4765 1.57843 34.6373 12.5845 -5.96578 -11.298 1.11562 -6.48081 -42.8213 7.42962 
-134.299 10.5658 112.788 12.2564 16.1121 -91.3065 -70.1915 0 88.8779 87.9149 68.7752 -2.21794 -11.6775 17.0589 6.72896 -156.274 26.8678 -170.495 178.805 65.1303 -126.389 1.01335 -9.79561 -17.1151 -147.133 0.826358 -131.343 16.8623 0.317796 -89.7352 -4.93235 0.365473 -7.21015 -1.04644 -8.66624 -7.25804 -144.32 -9.1078 120.957 11.9544 -0.467908 92.8063 13.5461 -0.515599 -4.88039 -50.296 5.8119 87.989 -1.62314 34.102 -4.12681 0.471544 -10.9305 -0.919466 -36.0217 -48.9904 -29.3289 -56.9487 -12.1223 81.4483 1.58624 34.6654 12.6076 -5.90706 -11.3588 1.11554 -6.39541 -42.7014 7.6757 
-134.298 10.5638 112.787 12.2657 16.1104 -91.3224 -70.1915 0 88.8779 87.8097 68.74 -2.22322 -11.6731 16.9798 6.82008 -156.407 26.966 -169.984 178.226 65.1325 -125.78 1.02054 -9.69316 -17.1777 -147.142 0.759719 -131.344 16.848 0.314079 -89.7501 -4.90673 0.364987 -7.23188 -1.02084 -8.58998 -7.13447 -144.316 -9.07924 121.119 11.9662 -0.479525 92.7198 13.5331 -0.517054 -4.84311 -50.3505 5.79103 87.9901 -1.6208 34.0189 -4.14675 0.433644 -10.7802 -0.907953 -35.985 -49.1898 -28.945 -56.9718 -12.1229 81.4449 1.58163 34.6274 12.679 -6.08754 -11.2144 1.11681 -6.59033 -42.9935 7.12792 
-134.294 10.557 112.796 12.2606 16.1234 -91.3604 -70.1915 0 88.8779 87.7374 68.7764 -2.11697 -11.6697 17.0504 6.74755 -156.332 26.9926 -169.972 177.702 65.041 -125.077 1.01499 -9.76956 -17.0201 -147.104 0.882294 -131.211 16.8955 0.309495 -89.7749 -4.92697 0.364325 -7.19877 -1.0528 -8.70475 -7.22308 -144.316 -9.22766 121.056 11.9772 -0.473054 92.7609 13.4832 -0.518619 -4.8553 -50.351 5.81192 88.1564 -1.6493 34.0409 -4.42569 0.379105 -10.6846 -0.899772 -35.6936 -49.4404 -28.0213 -56.9598 -12.1106 81.5582 1.56143 34.6189 12.5144 -6.05996 -11.3273 1.11836 -6.47854 -42.7104 7.3786 
-134.278 10.5538 112.796 12.225 16.1488 -91.3478 -70.1915 0 88.8779 87.8916 68.7877 -2.35848 -11.8493 16.976 6.96786 -156.307 27.0006 -169.956 178.266 65.1604 -125.767 1.01445 -9.78394 -17.247 -147.096 0.650623 -131.28 16.8074 0.291268 -89.8383 -4.91427 0.363951 -7.13655 -1.04471 -8.63414 -7.20553 -144.229 -9.04605 121.102 11.8791 -0.476534 92.7725 13.5858 -0.520099 -4.8718 -50.342 5.83532 88.184 -1.63513 33.993 -4.31362 0.468476 -10.7878 -0.909427 -35.9386 -49.2438 -28.7743 -56.8938 -12.1147 81.5695 1.55474 34.6741 12.4911 -5.94436 -11.3709 1.11657 -6.35819 -42.6184 7.76913 
